<svg width="78" height="62" viewBox="0 0 78 62" fill="none" xmlns="http://www.w3.org/2000/svg">
<path d="M0 10.4087V60.3953C0 61.2779 0.720295 62 1.60071 62H64.6901C65.5705 62 66.2908 61.2779 66.2908 60.3953V10.4087H0Z" fill="#E4EAF8"/>
<path d="M3.1391 60.3953V10.4087H0V60.3953C0 61.2779 0.720295 62 1.60071 62H4.73981C3.8594 62 3.1391 61.2778 3.1391 60.3953Z" fill="#D8DCE5"/>
<path d="M64.6386 0H9.60074V11.486H66.2908V1.65613C66.2908 0.745443 65.5473 0 64.6386 0Z" fill="#722DB2"/>
<path d="M10.9944 0H1.6522C0.743452 0 0 0.745443 0 1.65613V11.486H10.9944V0Z" fill="#8845C6"/>
<path d="M4.7913 0H1.6522C0.743452 0 0 0.745443 0 1.65613V11.486H3.1391V1.65613C3.1391 0.745443 3.88256 0 4.7913 0Z" fill="#9B51E0"/>
<path d="M57.9311 6.92293H16.4894C15.8393 6.92293 15.3122 6.39466 15.3122 5.74284C15.3122 5.09101 15.8392 4.56274 16.4894 4.56274H57.9311C58.5811 4.56274 59.1082 5.09101 59.1082 5.74284C59.1082 6.39466 58.5811 6.92293 57.9311 6.92293Z" fill="#EEEEEE" fill-opacity="0.75"/>
<path d="M75.5125 25.2697C75.0047 24.8623 74.264 24.9449 73.8579 25.4536L58.799 44.3149L47.18 35.0046C46.7132 34.6312 46.0567 34.677 45.6428 35.0627L33.105 46.7669C32.6292 47.2112 32.6027 47.9578 33.0457 48.4348C33.2776 48.6844 33.592 48.8107 33.9074 48.8107C34.1946 48.8107 34.4825 48.7059 34.7093 48.4942L46.5039 37.4842L58.2471 46.8941C58.2471 46.8941 58.2472 46.8943 58.2474 46.8944L58.2477 46.8946L58.2481 46.8949C58.7513 47.2982 59.4962 47.2196 59.9022 46.7106L75.6961 26.9285C76.1022 26.4197 76.0201 25.6769 75.5125 25.2697Z" fill="#C3C8D1"/>
<path d="M33.9078 50.8618C35.6882 50.8618 37.1315 49.415 37.1315 47.6302C37.1315 45.8454 35.6882 44.3986 33.9078 44.3986C32.1274 44.3986 30.6841 45.8454 30.6841 47.6302C30.6841 49.415 32.1274 50.8618 33.9078 50.8618Z" fill="#566368"/>
<path d="M58.9826 49.2046C60.7629 49.2046 62.2062 47.7577 62.2062 45.973C62.2062 44.1882 60.7629 42.7413 58.9826 42.7413C57.2022 42.7413 55.7589 44.1882 55.7589 45.973C55.7589 47.7577 57.2022 49.2046 58.9826 49.2046Z" fill="#4DAA74"/>
<path d="M74.7763 29.4222C76.5567 29.4222 78 27.9754 78 26.1906C78 24.4058 76.5567 22.959 74.7763 22.959C72.9959 22.959 71.5527 24.4058 71.5527 26.1906C71.5527 27.9754 72.9959 29.4222 74.7763 29.4222Z" fill="#FFC850"/>
<path d="M46.4444 39.1586C48.2248 39.1586 49.6681 37.7117 49.6681 35.9269C49.6681 34.1422 48.2248 32.6953 46.4444 32.6953C44.6641 32.6953 43.2208 34.1422 43.2208 35.9269C43.2208 37.7117 44.6641 39.1586 46.4444 39.1586Z" fill="#8845C6"/>
<path d="M33.8219 47.6307C33.8219 46.4172 34.4899 45.3611 35.4767 44.8084C35.012 44.5481 34.4773 44.3983 33.9072 44.3983C32.1264 44.3983 30.6828 45.8455 30.6828 47.6306C30.6828 49.4157 32.1264 50.8629 33.9072 50.8629C34.4773 50.8629 35.012 50.7133 35.4767 50.4529C34.4901 49.9005 33.8219 48.8444 33.8219 47.6307Z" fill="#3F4648"/>
<path d="M58.8977 45.9734C58.8977 44.7597 59.5658 43.7037 60.5525 43.151C60.0878 42.8908 59.5531 42.741 58.983 42.741C57.2022 42.741 55.7586 44.1882 55.7586 45.9734C55.7586 47.7585 57.2022 49.2057 58.983 49.2057C59.5531 49.2057 60.0878 49.0561 60.5525 48.7957C59.5659 48.243 58.8977 47.1869 58.8977 45.9734Z" fill="#6FCF97"/>
<path d="M74.6917 26.1909C74.6917 24.9772 75.3597 23.9213 76.3464 23.3686C75.8818 23.1083 75.3471 22.9585 74.777 22.9585C72.9962 22.9585 71.5526 24.4057 71.5526 26.1909C71.5526 27.9761 72.9962 29.4233 74.777 29.4233C75.3471 29.4233 75.8818 29.2736 76.3464 29.0132C75.3598 28.4607 74.6917 27.4046 74.6917 26.1909Z" fill="#F9B428"/>
<path d="M46.3599 35.9266C46.3599 34.7129 47.0279 33.657 48.0147 33.1043C47.5499 32.844 47.0153 32.6942 46.4452 32.6942C44.6644 32.6942 43.2208 34.1414 43.2208 35.9266C43.2208 37.7118 44.6644 39.159 46.4452 39.159C47.0153 39.159 47.55 39.0093 48.0147 38.7489C47.0279 38.1964 46.3599 37.1403 46.3599 35.9266Z" fill="#9B51E0"/>
<path d="M25.6755 33.3335H9.08429C8.43422 33.3335 7.9071 32.8052 7.9071 32.1534C7.9071 31.5015 8.43407 30.9733 9.08429 30.9733H25.6755C26.3255 30.9733 26.8526 31.5015 26.8526 32.1534C26.8526 32.8052 26.3255 33.3335 25.6755 33.3335Z" fill="#C3C8D1"/>
<path d="M25.6755 39.0864H9.08429C8.43422 39.0864 7.9071 38.5581 7.9071 37.9063C7.9071 37.2545 8.43407 36.7262 9.08429 36.7262H25.6755C26.3255 36.7262 26.8526 37.2545 26.8526 37.9063C26.8526 38.5581 26.3255 39.0864 25.6755 39.0864Z" fill="#C3C8D1"/>
<path d="M25.6755 44.8397H9.08429C8.43422 44.8397 7.9071 44.3114 7.9071 43.6596C7.9071 43.0078 8.43407 42.4795 9.08429 42.4795H25.6755C26.3255 42.4795 26.8526 43.0078 26.8526 43.6596C26.8526 44.3114 26.3255 44.8397 25.6755 44.8397Z" fill="#C3C8D1"/>
<path d="M25.6755 50.5926H9.08429C8.43422 50.5926 7.9071 50.0643 7.9071 49.4125C7.9071 48.7607 8.43407 48.2324 9.08429 48.2324H25.6755C26.3255 48.2324 26.8526 48.7607 26.8526 49.4125C26.8526 50.0643 26.3255 50.5926 25.6755 50.5926Z" fill="#C3C8D1"/>
<path d="M25.6755 56.3458H9.08429C8.43422 56.3458 7.9071 55.8175 7.9071 55.1657C7.9071 54.5139 8.43407 53.9856 9.08429 53.9856H25.6755C26.3255 53.9856 26.8526 54.5139 26.8526 55.1657C26.8526 55.8175 26.3255 56.3458 25.6755 56.3458Z" fill="#C3C8D1"/>
<path d="M55.3783 26.2792H10.9124C9.90696 26.2792 9.08429 25.4545 9.08429 24.4466V19.502C9.08429 18.494 9.90696 17.6693 10.9124 17.6693H55.3783C56.3838 17.6693 57.2065 18.494 57.2065 19.502V24.4466C57.2065 25.4547 56.3838 26.2792 55.3783 26.2792Z" fill="#FFC850"/>
<path d="M55.323 23.128H10.9678C9.93195 23.128 9.08429 22.2784 9.08429 21.2399V24.3915C9.08429 25.4298 9.93179 26.2796 10.9678 26.2796H55.323C56.359 26.2796 57.2065 25.43 57.2065 24.3915V21.2399C57.2065 22.2782 56.359 23.128 55.323 23.128Z" fill="#F9B428"/>
</svg>
