<svg width="75" height="75" viewBox="0 0 75 75" fill="none" xmlns="http://www.w3.org/2000/svg">
<path d="M4.92386 27.3761C5.31809 28.7417 5.8652 30.0584 6.55712 31.2939L4.58594 33.8056C3.94229 34.6265 4.0147 35.797 4.73881 36.5367L8.13407 39.9668C8.86622 40.7065 10.0248 40.7714 10.8374 40.1212L13.3074 38.146C14.5786 38.8857 15.9303 39.4628 17.3383 39.8692L17.7084 43.0799C17.8291 44.1203 18.698 44.9006 19.7278 44.9006H24.5311C25.5609 44.9006 26.4299 44.1202 26.5506 43.0799L26.9046 39.983C28.4171 39.5847 29.8654 38.9913 31.2251 38.2191L33.6146 40.1293C34.4272 40.7796 35.5858 40.7064 36.318 39.9749L39.7132 36.5447C40.4454 35.805 40.5098 34.6346 39.8661 33.8136L38.0076 31.432C38.7799 30.0827 39.3834 28.644 39.7856 27.1403L42.6499 26.807C43.6798 26.6851 44.4521 25.8073 44.4521 24.7669V19.9143C44.4521 18.8739 43.6797 17.996 42.6499 17.8741L39.8259 17.5408C39.4396 16.0533 38.8604 14.6309 38.1203 13.2979L39.8581 11.0788C40.5018 10.2579 40.4294 9.08741 39.7053 8.34774L36.318 4.92573C35.5859 4.18606 34.4273 4.12104 33.6147 4.7713L31.4826 6.47823C30.0988 5.65728 28.6183 5.0314 27.0656 4.60873L26.7437 1.82073C26.623 0.780314 25.7541 0 24.7243 0H19.921C18.8912 0 18.0222 0.780314 17.9016 1.82073L17.5797 4.60873C15.9867 5.03953 14.4661 5.68979 13.05 6.54326L10.8375 4.7713C10.0249 4.12104 8.8663 4.19419 8.13415 4.92573L4.73889 8.35587C4.00673 9.09554 3.94237 10.266 4.58602 11.087L6.43652 13.4523C5.69632 14.8016 5.13312 16.2403 4.76302 17.7359L1.80222 18.0773C0.772382 18.1992 0 19.0771 0 20.1175V24.9701C0 26.0105 0.772382 26.8883 1.80222 27.0103L4.92386 27.3761ZM22.3266 14.2489C26.7034 14.2489 30.2676 17.8498 30.2676 22.2716C30.2676 26.6933 26.7034 30.2942 22.3266 30.2942C17.9498 30.2942 14.3855 26.6933 14.3855 22.2716C14.3855 17.8498 17.9498 14.2489 22.3266 14.2489Z" fill="white"/>
<path d="M69.8122 28.571L67.2778 26.4089C66.4975 25.7424 65.3468 25.7749 64.6067 26.4821L63.2068 27.807C62.0242 27.2299 60.769 26.8235 59.4736 26.5877L59.0795 24.637C58.8784 23.6291 57.9531 22.93 56.9392 23.0113L53.6325 23.2958C52.6187 23.3852 51.8222 24.2224 51.79 25.2547L51.7257 27.238C50.4544 27.7013 49.2556 28.3353 48.1614 29.1319L46.488 28.0102C45.635 27.4412 44.5007 27.6038 43.841 28.3922L41.7009 30.9689C41.041 31.7573 41.0732 32.9197 41.7731 33.6675L43.2375 35.2443C42.7305 36.3985 42.3685 37.6097 42.1594 38.8532L40.0675 39.284C39.0698 39.4872 38.3779 40.422 38.4584 41.4462L38.74 44.7869C38.8285 45.8111 39.6572 46.6158 40.679 46.6483L42.9398 46.7214C43.3503 47.8106 43.8893 48.843 44.5409 49.8101L43.2778 51.7365C42.7146 52.5981 42.8755 53.7442 43.6559 54.4107L46.1902 56.5729C46.9708 57.2394 48.1212 57.2069 48.8615 56.4997L50.5189 54.931C51.605 55.443 52.7474 55.8251 53.9221 56.0527L54.3808 58.3448C54.5819 59.3527 55.5072 60.0518 56.5209 59.9705L59.8277 59.686C60.8414 59.5966 61.638 58.7595 61.6701 57.7271L61.7426 55.4836C62.9494 55.0528 64.0918 54.4676 65.1458 53.7442L66.9722 54.9635C67.8251 55.5324 68.9594 55.3699 69.6192 54.5814L71.7594 52.021C72.4191 51.2326 72.3869 50.0702 71.687 49.3224L70.2145 47.7456C70.7537 46.5914 71.148 45.3722 71.3731 44.1203L73.3845 43.7058C74.3822 43.5026 75.0741 42.5678 74.9937 41.5436L74.7121 38.2029C74.6236 37.1787 73.7949 36.374 72.7731 36.3415L70.7536 36.2765C70.3352 35.0898 69.772 33.9681 69.0721 32.9276L70.1742 31.2532C70.7536 30.3918 70.5927 29.2376 69.8122 28.571ZM57.3496 47.8837C53.7774 48.1927 50.6233 45.5022 50.3257 41.8933C50.0199 38.2843 52.6832 35.098 56.2553 34.7972C59.8275 34.4883 62.9816 37.1789 63.2792 40.7878C63.585 44.3968 60.9217 47.5831 57.3496 47.8837Z" fill="#722DB2"/>
<path d="M16.4933 56.8736C15.4795 56.9793 14.6991 57.8408 14.6911 58.8732L14.6669 60.9296C14.6508 61.9619 15.4071 62.8398 16.4209 62.9699L17.9174 63.1649C18.1668 64.0835 18.5208 64.9613 18.9794 65.7904L18.0139 66.9934C17.3703 67.798 17.4185 68.9523 18.1346 69.692L19.5587 71.1632C20.2748 71.9029 21.4172 71.9842 22.2298 71.3502L23.4286 70.4154C24.2734 70.9194 25.1665 71.3177 26.0997 71.594L26.2606 73.1546C26.3652 74.1788 27.2181 74.9672 28.2399 74.9754L30.2755 74.9998C31.2972 75.016 32.1662 74.252 32.295 73.2278L32.48 71.7485C33.4938 71.4964 34.4593 71.1144 35.3764 70.6105L36.5028 71.529C37.2993 72.1793 38.4419 72.1305 39.1741 71.4071L40.6303 69.9684C41.3625 69.245 41.4429 68.0907 40.8155 67.2698L39.9544 66.1399C40.4854 65.2457 40.8958 64.2947 41.1774 63.295L42.513 63.1568C43.5268 63.0511 44.3071 62.1895 44.3152 61.1572L44.3393 59.1007C44.3555 58.0685 43.5992 57.1905 42.5854 57.0605L41.2819 56.8898C41.0325 55.8982 40.6625 54.939 40.1798 54.0449L40.9924 53.037C41.636 52.2323 41.5878 51.0781 40.8717 50.3384L39.4477 48.8672C38.7316 48.1274 37.589 48.0462 36.7765 48.6802L35.8029 49.4362C34.8857 48.8753 33.9041 48.4445 32.8743 48.1519L32.7455 46.8758C32.6409 45.8515 31.7882 45.0632 30.7663 45.055L28.7307 45.0307C27.7089 45.0144 26.84 45.7785 26.7112 46.8026L26.5503 48.0707C25.4883 48.347 24.4665 48.7697 23.5171 49.3224L22.5114 48.4933C21.7149 47.843 20.5724 47.8919 19.8402 48.6152L18.3759 50.0621C17.6437 50.7855 17.5633 51.9398 18.1909 52.7606L19.0517 53.8824C18.5529 54.7765 18.1587 55.7275 17.9012 56.7273L16.4933 56.8736ZM29.6318 54.5489C32.5524 54.5814 34.8936 57.0118 34.8615 59.9624C34.8293 62.9129 32.4236 65.2782 29.503 65.2457C26.5825 65.2132 24.2413 62.7829 24.2734 59.8322C24.3056 56.8818 26.7113 54.5164 29.6318 54.5489Z" fill="#6FCF97"/>
</svg>
