<svg width="86" height="75" viewBox="0 0 86 75" fill="none" xmlns="http://www.w3.org/2000/svg">
<path d="M84.749 33.3773L50.5952 73.2085C48.7407 75.3712 45.4975 75.6093 43.3517 73.7401L14.8622 48.9243C12.7164 47.0551 12.4803 43.7864 14.3348 41.6236L48.4887 1.79261C50.3443 -0.371304 53.5874 -0.609332 55.7332 1.25968L84.2227 26.0757C86.3685 27.9445 86.6047 31.2132 84.749 33.3773Z" fill="#E5E9EA"/>
<path d="M84.7489 33.3773L64.1985 57.3441L27.9379 25.7594L48.4887 1.79261C50.3443 -0.371304 53.5874 -0.609332 55.7332 1.25968L84.2227 26.0757C86.3685 27.9445 86.6047 31.2132 84.7489 33.3773Z" fill="#6FCF97"/>
<path d="M67.4724 21.3244L50.8624 71.2364C49.9604 73.9466 47.0495 75.4068 44.3605 74.4979L8.66046 62.4294C5.97145 61.5203 4.52272 58.5864 5.42454 55.8762L22.0345 5.96422C22.937 3.25246 25.8479 1.79213 28.5369 2.70124L64.2369 14.7697C66.9261 15.6787 68.3748 18.6127 67.4724 21.3244Z" fill="#36A6CE"/>
<path d="M67.4724 21.3244L57.4781 51.357L12.0403 35.9965L22.0345 5.96385C22.937 3.2521 25.8479 1.79177 28.5369 2.70088L64.237 14.7693C66.9261 15.6786 68.3749 18.6127 67.4724 21.3244Z" fill="#E5E9EA"/>
<path d="M47.9257 16.6689V69.3137C47.9257 72.1723 45.6263 74.4897 42.7902 74.4897H5.13548C2.29932 74.4896 0 72.1723 0 69.3137V16.6689C0 13.8086 2.29932 11.4913 5.13548 11.4913H42.79C45.6263 11.4912 47.9257 13.8086 47.9257 16.6689Z" fill="#E5E9EA"/>
<path d="M47.9257 16.6689V48.3458H0V16.6689C0 13.8086 2.29932 11.4913 5.13548 11.4913H42.79C45.6263 11.4912 47.9257 13.8086 47.9257 16.6689Z" fill="#8845C6"/>
<path d="M37.3034 57.3166H10.6225C9.89086 57.3166 9.29776 56.7188 9.29776 55.9813C9.29776 55.2439 9.89086 54.6461 10.6225 54.6461H37.3032C38.0349 54.6461 38.6279 55.2439 38.6279 55.9813C38.6279 56.7188 38.0349 57.3166 37.3034 57.3166Z" fill="#566368"/>
<path d="M37.3034 62.4209H10.6225C9.89086 62.4209 9.29776 61.8232 9.29776 61.0857C9.29776 60.3483 9.89086 59.7505 10.6225 59.7505H37.3032C38.0349 59.7505 38.6279 60.3483 38.6279 61.0857C38.6281 61.8232 38.0349 62.4209 37.3034 62.4209Z" fill="#566368"/>
<path d="M37.3034 67.5253H10.6225C9.89086 67.5253 9.29776 66.9275 9.29776 66.1901C9.29776 65.4526 9.89086 64.8549 10.6225 64.8549H37.3032C38.0349 64.8549 38.6279 65.4526 38.6279 66.1901C38.6281 66.9275 38.0349 67.5253 37.3034 67.5253Z" fill="#566368"/>
<path d="M23.9628 16.3215L28.0731 24.7156L37.264 26.0619L30.6135 32.5958L32.1835 41.8218L23.9628 37.4659L15.7422 41.8218L17.3121 32.5958L10.6615 26.0619L19.8526 24.7156L23.9628 16.3215Z" fill="#FCB65F"/>
</svg>
