<svg width="57" height="70" viewBox="0 0 57 70" fill="none" xmlns="http://www.w3.org/2000/svg">
<path d="M0 13.0508H47.5V69.9999H0V13.0508Z" fill="#8845C6"/>
<path d="M30.875 9.49152C30.2192 9.49152 29.6875 8.9603 29.6875 8.30508V2.37288H17.8125V8.30508C17.8125 8.9603 17.2808 9.49152 16.625 9.49152C15.9692 9.49152 15.4375 8.9603 15.4375 8.30508V1.18644C15.4375 0.531229 15.9692 0 16.625 0H30.875C31.5308 0 32.0625 0.531229 32.0625 1.18644V8.30508C32.0625 8.9603 31.5308 9.49152 30.875 9.49152Z" fill="#6FCF97" fill-opacity="0.72"/>
<path d="M4.75 17.7966H42.75V65.2543H4.75V17.7966Z" fill="black" fill-opacity="0.25"/>
<path d="M13.0625 28.4746H9.5C8.8442 28.4746 8.3125 27.9433 8.3125 27.2881C8.3125 26.6329 8.8442 26.1017 9.5 26.1017H13.0625C13.7183 26.1017 14.25 26.6329 14.25 27.2881C14.25 27.9433 13.7183 28.4746 13.0625 28.4746Z" fill="white"/>
<path d="M28.5001 28.4746H17.8126C17.1568 28.4746 16.6251 27.9433 16.6251 27.2881C16.6251 26.6329 17.1568 26.1017 17.8126 26.1017H28.5001C29.1559 26.1017 29.6876 26.6329 29.6876 27.2881C29.6876 27.9433 29.1559 28.4746 28.5001 28.4746Z" fill="white"/>
<path d="M33.25 24.9152H38V29.6609H33.25V24.9152Z" fill="white"/>
<path d="M13.0625 37.9661H9.5C8.8442 37.9661 8.3125 37.4349 8.3125 36.7797C8.3125 36.1245 8.8442 35.5933 9.5 35.5933H13.0625C13.7183 35.5933 14.25 36.1245 14.25 36.7797C14.25 37.4349 13.7183 37.9661 13.0625 37.9661Z" fill="white"/>
<path d="M28.5001 37.9661H17.8126C17.1568 37.9661 16.6251 37.4349 16.6251 36.7797C16.6251 36.1245 17.1568 35.5933 17.8126 35.5933H28.5001C29.1559 35.5933 29.6876 36.1245 29.6876 36.7797C29.6876 37.4349 29.1559 37.9661 28.5001 37.9661Z" fill="white"/>
<path d="M33.25 34.4067H38V39.1525H33.25V34.4067Z" fill="white"/>
<path d="M13.0625 47.4577H9.5C8.8442 47.4577 8.3125 46.9265 8.3125 46.2713C8.3125 45.6161 8.8442 45.0848 9.5 45.0848H13.0625C13.7183 45.0848 14.25 45.6161 14.25 46.2713C14.25 46.9265 13.7183 47.4577 13.0625 47.4577Z" fill="white"/>
<path d="M28.5001 47.4577H17.8126C17.1568 47.4577 16.6251 46.9265 16.6251 46.2713C16.6251 45.6161 17.1568 45.0848 17.8126 45.0848H28.5001C29.1559 45.0848 29.6876 45.6161 29.6876 46.2713C29.6876 46.9265 29.1559 47.4577 28.5001 47.4577Z" fill="white"/>
<path d="M33.25 43.8983H38V48.6441H33.25V43.8983Z" fill="white"/>
<path d="M13.0625 56.9491H9.5C8.8442 56.9491 8.3125 56.4178 8.3125 55.7626C8.3125 55.1074 8.8442 54.5762 9.5 54.5762H13.0625C13.7183 54.5762 14.25 55.1074 14.25 55.7626C14.25 56.4178 13.7183 56.9491 13.0625 56.9491Z" fill="white"/>
<path d="M28.5001 56.9491H17.8126C17.1568 56.9491 16.6251 56.4178 16.6251 55.7626C16.6251 55.1074 17.1568 54.5762 17.8126 54.5762H28.5001C29.1559 54.5762 29.6876 55.1074 29.6876 55.7626C29.6876 56.4178 29.1559 56.9491 28.5001 56.9491Z" fill="white"/>
<path d="M33.25 53.3898H38V58.1355H33.25V53.3898Z" fill="white"/>
<path d="M52.25 43.8983H57V70H52.25V43.8983Z" fill="#6FCF97"/>
<path d="M52.25 36.7797H57V43.8983H52.25V36.7797Z" fill="#FFCDBE"/>
<path d="M54.625 37.9661C53.9692 37.9661 53.4375 37.4349 53.4375 36.7797V33.2204C53.4375 32.5652 53.9692 32.0339 54.625 32.0339C55.2808 32.0339 55.8125 32.5652 55.8125 33.2204V36.7797C55.8125 37.4349 55.2808 37.9661 54.625 37.9661Z" fill="#6FCF97"/>
<path d="M8.3125 8.30505H39.1875V20.1695H8.3125V8.30505Z" fill="#4DAA74"/>
</svg>
