<svg width="70" height="70" viewBox="0 0 70 70" fill="none" xmlns="http://www.w3.org/2000/svg">
<path d="M15.9313 41.8424H12.7451V67.5536H15.9313C16.5155 67.5536 16.9933 67.0418 16.9933 66.4163C16.9933 65.7907 16.9933 64.7516 16.9933 64.107V45.3578C16.9933 44.7132 16.9933 43.6587 16.9933 43.0142C16.9933 42.3696 16.5155 41.8424 15.9313 41.8424Z" fill="#EEEEEE"/>
<path d="M12.7451 66.3816C12.7451 67.0262 12.7451 68.0807 12.7451 68.7252V68.7939C12.7451 69.4384 12.2671 69.9656 11.683 69.9656H1.06203C0.477832 69.9656 0 69.4383 0 68.7939V40.6704C0 40.0259 0.477969 39.4987 1.06203 39.4987H11.6829C12.2671 39.4987 12.7449 40.026 12.7449 40.6704V40.6705C12.7449 41.3151 12.7449 42.3696 12.7449 43.0142V66.3816H12.7451Z" fill="white"/>
<path d="M48.6444 52.4229L50.9804 51.2512C56.2908 48.9074 63.7253 44.8542 63.7253 44.8542C65.7645 43.5657 68.3556 44.3165 69.5255 46.5637C70.6932 48.8158 69.5255 51.251 67.9738 52.9629C67.9738 52.9629 48.8562 69.9996 42.4834 69.9996C36.111 69.9996 16.9933 65.3125 16.9933 65.3125V44.2202C27.614 42.275 31.2464 45.392 46.7317 50.8528C47.5822 51.2512 48.1548 51.8141 48.5157 52.4962L48.6444 52.4229Z" fill="#FFDECF"/>
<path d="M69.5255 46.5639C69.0982 45.7423 68.4778 45.1267 67.7683 44.7307C67.5093 46.0375 66.7518 47.2802 65.8494 48.2758C65.8494 48.2758 48.8562 64.8825 42.4834 64.8825C37.4054 64.8825 22.1336 62.342 16.9933 61.1338V65.3128C16.9933 65.3128 36.1108 70 42.4834 70C48.8562 70 67.9738 52.9632 67.9738 52.9632C69.5255 51.2512 70.6932 48.816 69.5255 46.5639Z" fill="#FFCDBE"/>
<path d="M45.2446 59.5429C46.9663 59.5429 48.7149 58.4879 49.8726 56.6912C50.9863 54.9633 51.2104 52.9927 50.4928 51.4983L48.6444 52.423L48.5614 52.4687C48.576 52.4939 48.6069 52.5396 48.6174 52.5578C48.9723 53.2422 48.7856 54.3316 48.1403 55.3341C47.4308 56.4373 46.1218 57.4259 44.7983 57.1558C42.7157 56.7348 30.4041 54.8808 29.8815 54.8029C29.3067 54.7114 28.7654 55.1647 28.6865 55.8054C28.6077 56.4464 29.0143 57.0368 29.5952 57.1238C29.7216 57.1421 42.3817 59.0484 44.4124 59.4582C44.6885 59.5156 44.9665 59.5429 45.2446 59.5429Z" fill="#FFCDBE"/>
<path d="M8.60662 68.8282H8.58365C7.99863 68.8282 7.53406 69.3547 7.53406 70H9.66879C9.66879 69.3545 9.19164 68.8282 8.60662 68.8282Z" fill="#FFCE54"/>
<path d="M56.9495 10.7822C56.9495 9.05415 55.6821 7.65735 54.1172 7.65735H31.4596C29.8933 7.65735 28.6274 9.05415 28.6274 10.7822L30.0435 20.1549L28.6274 28.1232H34.2918H51.285H56.9494L55.5332 20.3112L56.9495 10.7822Z" fill="#F5F7FA"/>
<path d="M54.1172 7.65735H31.4596C29.8933 7.65735 28.6274 9.05415 28.6274 10.7822L30.0435 20.1549L30.0158 20.3112H55.5334L56.9495 10.7822C56.9495 9.0543 55.6821 7.65735 54.1172 7.65735Z" fill="#E6E9ED"/>
<path d="M56.9495 28.1233V34.3728C56.9495 36.0992 55.6821 37.4977 54.1172 37.4977H31.4596C29.8933 37.4977 28.6274 36.0994 28.6274 34.3728V28.1233H34.2918H51.285H56.9495Z" fill="#722DB2"/>
<path d="M52.7007 28.1233V34.3728C52.7007 36.0992 51.4334 37.4977 49.8685 37.4977H54.1171C55.6819 37.4977 56.9494 36.0994 56.9494 34.3728V28.1233H52.7007Z" fill="#6FCF97"/>
<path d="M56.9496 3.12485V10.7821C56.9496 9.054 55.6822 7.6572 54.1173 7.6572H31.4597C29.8933 7.6572 28.6274 9.054 28.6274 10.7821V3.12485C28.6274 1.3968 29.8933 0 31.4597 0H54.1173C55.6822 0.000150842 56.9496 1.39695 56.9496 3.12485Z" fill="#722DB2"/>
<path d="M54.1173 0.000976562H49.8686C51.4333 0.000976562 52.7009 1.39778 52.7009 3.12582V7.65833H54.1174C55.6821 7.65833 56.9497 9.05513 56.9497 10.7832V3.12567C56.9495 1.39778 55.6822 0.000976562 54.1173 0.000976562Z" fill="#6FCF97"/>
</svg>
