<svg width="70" height="70" viewBox="0 0 70 70" fill="none" xmlns="http://www.w3.org/2000/svg">
<path d="M59.7461 49.4922H51.543C45.8828 49.4922 41.2891 54.0859 41.2891 59.7461V67.9492C41.2891 69.0978 42.1913 70 43.3398 70H67.9492C69.0978 70 70 69.0978 70 67.9492V59.7461C70 54.0859 65.4062 49.4922 59.7461 49.4922Z" fill="#4DAA74"/>
<path d="M70 59.7461V67.9492C70 69.0978 69.0978 70 67.9492 70H55.6445V49.4922H59.7461C65.4062 49.4922 70 54.0859 70 59.7461Z" fill="#6FCF97"/>
<path d="M18.457 49.4922H10.2539C4.59375 49.4922 0 54.0859 0 59.7461V67.9492C0 69.0978 0.902207 70 2.05078 70H26.6602C27.8087 70 28.7109 69.0978 28.7109 67.9492V59.7461C28.7109 54.0859 24.1172 49.4922 18.457 49.4922Z" fill="#9B51E0"/>
<path d="M28.7109 59.7461V67.9492C28.7109 69.0978 27.8087 70 26.6602 70H14.3555V49.4922H18.457C24.1172 49.4922 28.7109 54.0859 28.7109 59.7461Z" fill="#722DB2"/>
<path d="M14.3555 37.1875C9.84389 37.1875 6.15234 40.879 6.15234 45.3906C6.15234 49.9022 9.84389 53.5938 14.3555 53.5938C18.8671 53.5938 22.5586 49.9022 22.5586 45.3906C22.5586 40.879 18.8671 37.1875 14.3555 37.1875Z" fill="#9B51E0" fill-opacity="0.6"/>
<path d="M55.6445 37.1875C51.1329 37.1875 47.4414 40.879 47.4414 45.3906C47.4414 49.9022 51.1329 53.5938 55.6445 53.5938C60.1561 53.5938 63.8477 49.9022 63.8477 45.3906C63.8477 40.879 60.1561 37.1875 55.6445 37.1875Z" fill="#4DAA74" fill-opacity="0.62"/>
<path d="M63.8477 45.3906C63.8477 49.9022 60.1561 53.5938 55.6445 53.5938V37.1875C60.1561 37.1875 63.8477 40.879 63.8477 45.3906Z" fill="#6FCF97" fill-opacity="0.62"/>
<path d="M22.5586 45.3906C22.5586 49.9022 18.8671 53.5938 14.3555 53.5938V37.1875C18.8671 37.1875 22.5586 40.879 22.5586 45.3906Z" fill="#722DB2" fill-opacity="0.5"/>
<path d="M55.5079 4.96303C54.2364 4.38867 52.8417 4.10156 51.4063 4.10156H37.994C36.9686 4.10156 36.1075 4.88086 35.9843 5.90625L32.9491 30.5156C32.8259 31.7461 33.7694 32.8125 34.9999 32.8125H42.3416L49.9706 40.4003C51.2424 41.7128 53.4571 40.8105 53.4571 38.9648V32.6074C54.1542 32.4842 54.8517 32.2381 55.5079 31.951C59.1172 30.3924 61.6602 26.7833 61.6602 22.5586V14.3555C61.6602 10.1307 59.1172 6.52162 55.5079 4.96303Z" fill="#EEEEEE"/>
<path d="M35 0H18.5938C17.1583 0 15.7637 0.287109 14.4922 0.861465C10.8828 2.42006 8.33984 6.02916 8.33984 10.2539V22.5586C8.33984 26.7833 10.8828 30.3924 14.4922 31.951C15.1483 32.2381 15.8458 32.4842 16.543 32.6074V38.9648C16.543 40.8105 18.7577 41.7128 20.0292 40.4003L26.7969 33.674L27.6583 32.8125H35C40.6602 32.8125 45.2539 28.2188 45.2539 22.5586V10.2539C45.2539 4.59375 40.6602 0 35 0Z" fill="white"/>
<path d="M34.3846 11.6893L26.7969 19.2773C25.7017 20.3719 24.5282 21.1742 23.3107 19.8924L19.2091 15.7909C18.3888 15.0116 18.3888 13.6994 19.2091 12.9199C19.9884 12.0996 21.3006 12.0996 22.0801 12.9199L24.7461 15.5448L26.7969 13.494L31.5138 8.81836C32.2931 7.99805 33.6053 7.99805 34.3848 8.81836C35.2051 9.59779 35.2051 10.91 34.3846 11.6893Z" fill="#8845C6"/>
</svg>
