<svg width="22" height="15" viewBox="0 0 22 15" fill="none" xmlns="http://www.w3.org/2000/svg">
<path d="M21.8549 6.63251C21.8066 6.58374 20.6462 4.97438 18.7363 3.34064C16.1736 1.14606 13.4901 0 11 0C5.02857 0 0.338462 6.36429 0.145055 6.63251C-0.0483517 6.90074 -0.0483517 7.24212 0.145055 7.48596C0.193407 7.55911 1.35385 9.16847 3.26374 10.8022C5.82637 12.9968 8.50989 14.1429 11 14.1429C16.9714 14.1429 21.6615 7.77857 21.8549 7.51034C22.0484 7.24212 22.0484 6.90074 21.8549 6.63251ZM11 12.6798C6.6 12.6798 2.78022 8.46133 1.64396 7.07143C2.78022 5.68153 6.57582 1.46305 11 1.46305C15.4 1.46305 19.2198 5.68153 20.356 7.07143C19.2198 8.46133 15.4242 12.6798 11 12.6798Z" fill="url(#paint0_linear)"/>
<path d="M11 2.68225C8.60656 2.68225 6.64832 4.65737 6.64832 7.07141C6.64832 9.48545 8.60656 11.4606 11 11.4606C13.3934 11.4606 15.3516 9.48545 15.3516 7.07141C15.3516 4.65737 13.3934 2.68225 11 2.68225ZM11 9.99752C9.40436 9.99752 8.09886 8.68077 8.09886 7.07141C8.09886 5.46205 9.40436 4.14531 11 4.14531C12.5956 4.14531 13.9011 5.46205 13.9011 7.07141C13.9011 8.68077 12.5956 9.99752 11 9.99752Z" fill="url(#paint1_linear)"/>
<defs>
<linearGradient id="paint0_linear" x1="11" y1="0" x2="11" y2="14.1429" gradientUnits="userSpaceOnUse">
<stop stop-color="#D2A2E4"/>
<stop offset="1" stop-color="#9B51E0"/>
</linearGradient>
<linearGradient id="paint1_linear" x1="11" y1="2.68225" x2="11" y2="11.4606" gradientUnits="userSpaceOnUse">
<stop stop-color="#D79CEE"/>
<stop offset="1" stop-color="#9B51E0"/>
</linearGradient>
</defs>
</svg>
